<svg version="1.1" id="Layer_1" xmlns="http://www.w3.org/2000/svg" xmlns:xlink="http://www.w3.org/1999/xlink" x="0px" y="0px"
	 width="100%" viewBox="0 0 100 100" enable-background="new 0 0 100 100" xml:space="preserve">
<path fill="#F90F3C" opacity="1.000000" stroke="none" 
	d="
M56.000000,101.000000 
	C37.333336,101.000000 19.166674,101.000000 1.000007,101.000000 
	C1.000005,67.666679 1.000005,34.333351 1.000002,1.000021 
	C34.333317,1.000014 67.666634,1.000014 100.999969,1.000007 
	C100.999977,34.333313 100.999977,67.666626 100.999985,100.999969 
	C86.166664,101.000000 71.333336,101.000000 56.000000,101.000000 
M25.434158,8.916996 
	C11.113316,16.854914 0.699929,36.595798 2.647110,45.617935 
	C16.714542,45.617935 30.757338,45.617935 44.801899,45.617935 
	C44.801899,30.958160 44.801899,16.681253 44.801899,0.815316 
	C38.079609,3.555669 32.057377,6.010642 25.434158,8.916996 
M57.002411,4.856305 
	C57.002411,18.433193 57.002411,32.010082 57.002411,45.744003 
	C71.605309,45.744003 85.657494,45.744003 99.974449,45.744003 
	C99.974449,44.513405 100.146065,43.502281 99.949242,42.568844 
	C95.553986,21.724365 80.622971,6.900709 60.109276,2.181847 
	C59.257195,1.985839 58.053913,3.316539 57.002411,4.856305 
M32.485825,57.000000 
	C22.389074,57.000000 12.292323,57.000000 2.166658,57.000000 
	C3.778384,79.476707 26.220524,99.561356 44.681328,99.442215 
	C44.681328,85.404953 44.681328,71.367691 44.681328,57.000000 
	C40.736916,57.000000 37.107555,57.000000 32.485825,57.000000 
M96.004738,71.402885 
	C97.518600,66.842155 99.032463,62.281429 100.650688,57.406303 
	C85.531403,57.406303 71.342300,57.406303 57.214146,57.406303 
	C57.214146,71.762039 57.214146,85.710594 57.214146,100.914856 
	C63.021755,98.800720 68.453140,97.300140 73.454643,94.902710 
	C83.578598,90.049889 90.484360,81.774826 96.004738,71.402885 
z"/>
<path fill="#000000" opacity="1.000000" stroke="none" 
	d="
M25.734650,8.691306 
	C32.057377,6.010642 38.079609,3.555669 44.801899,0.815316 
	C44.801899,16.681253 44.801899,30.958160 44.801899,45.617935 
	C30.757338,45.617935 16.714542,45.617935 2.647110,45.617935 
	C0.699929,36.595798 11.113316,16.854914 25.734650,8.691306 
z"/>
<path fill="#000000" opacity="1.000000" stroke="none" 
	d="
M57.008331,4.396139 
	C58.053913,3.316539 59.257195,1.985839 60.109276,2.181847 
	C80.622971,6.900709 95.553986,21.724365 99.949242,42.568844 
	C100.146065,43.502281 99.974449,44.513405 99.974449,45.744003 
	C85.657494,45.744003 71.605309,45.744003 57.002411,45.744003 
	C57.002411,32.010082 57.002411,18.433193 57.008331,4.396139 
z"/>
<path fill="#000000" opacity="1.000000" stroke="none" 
	d="
M32.982010,57.000000 
	C37.107555,57.000000 40.736916,57.000000 44.681328,57.000000 
	C44.681328,71.367691 44.681328,85.404953 44.680893,99.443413 
	C26.220524,99.561356 3.778384,79.476707 2.166658,57.000000 
	C12.292323,57.000000 22.389074,57.000000 32.982010,57.000000 
z"/>
<path fill="#000000" opacity="1.000000" stroke="none" 
	d="
M95.969513,71.788368 
	C90.484360,81.774826 83.578598,90.049889 73.454643,94.902710 
	C68.453140,97.300140 63.021755,98.800720 57.214146,100.914856 
	C57.214146,85.710594 57.214146,71.762039 57.214146,57.406303 
	C71.342300,57.406303 85.531403,57.406303 100.650688,57.406303 
	C99.032463,62.281429 97.518600,66.842155 95.969513,71.788368 
z"/>
</svg>